<svg xmlns="http://www.w3.org/2000/svg" xmlns:xlink="http://www.w3.org/1999/xlink" style="isolation:isolate" width="1465.311" height="812.867" viewBox="298.508 989.675 1098.983 609.65"><defs><clipPath id="_clipPath_PiuruUw7P1kWeqXuNhSDT2tDYkySTMBO"><rect width="1098.983" height="609.65" x="298.508" y="989.675"/></clipPath></defs><g clip-path="url(#_clipPath_PiuruUw7P1kWeqXuNhSDT2tDYkySTMBO)"><g><rect width="1098.983" height="609.65" x="298.508" y="989.675" fill="none" transform="matrix(1,0,0,1,0,0)"/><g><mask id="_mask_tocxGXPgJSXsgUmlsPgQsIzBotJk64N1" width="400%" height="400%" x="-200%" y="-200%"><rect width="400%" height="400%" x="-200%" y="-200%" style="fill:#fff"/><path fill="#000" fill-rule="evenodd" stroke="none" d="M 579.301 1150.239 C 579.301 1127.644 560.956 1109.3 538.361 1109.3 L 456.481 1109.3 C 433.886 1109.3 415.541 1127.644 415.541 1150.239 L 415.541 1232.12 C 415.541 1254.715 433.886 1273.06 456.481 1273.06 L 538.361 1273.06 C 560.956 1273.06 579.301 1254.715 579.301 1232.12 L 579.301 1150.239 Z"/></mask><path fill="#F8FEFF" fill-rule="evenodd" stroke="#D0E3D6" stroke-linecap="round" stroke-linejoin="round" stroke-miterlimit="1.5" stroke-opacity="100" stroke-width="39.999" d="M 579.301 1150.239 C 579.301 1127.644 560.956 1109.3 538.361 1109.3 L 456.481 1109.3 C 433.886 1109.3 415.541 1127.644 415.541 1150.239 L 415.541 1232.12 C 415.541 1254.715 433.886 1273.06 456.481 1273.06 L 538.361 1273.06 C 560.956 1273.06 579.301 1254.715 579.301 1232.12 L 579.301 1150.239 Z" mask="url(#_mask_tocxGXPgJSXsgUmlsPgQsIzBotJk64N1)" vector-effect="non-scaling-stroke"/><path fill="#F8FEFF" fill-rule="evenodd" d="M 579.301 1150.239 C 579.301 1127.644 560.956 1109.3 538.361 1109.3 L 456.481 1109.3 C 433.886 1109.3 415.541 1127.644 415.541 1150.239 L 415.541 1232.12 C 415.541 1254.715 433.886 1273.06 456.481 1273.06 L 538.361 1273.06 C 560.956 1273.06 579.301 1254.715 579.301 1232.12 L 579.301 1150.239 Z"/></g><g><mask id="_mask_Fi2RoO8cNSQiBhBKqEjqhPQDYo1Lw2GF" width="400%" height="400%" x="-200%" y="-200%"><rect width="400%" height="400%" x="-200%" y="-200%" style="fill:#fff"/><path fill="#000" fill-rule="evenodd" stroke="none" d="M 784.618 1150.239 C 784.618 1127.644 766.273 1109.3 743.678 1109.3 L 661.798 1109.3 C 639.203 1109.3 620.858 1127.644 620.858 1150.239 L 620.858 1232.12 C 620.858 1254.715 639.203 1273.06 661.798 1273.06 L 743.678 1273.06 C 766.273 1273.06 784.618 1254.715 784.618 1232.12 L 784.618 1150.239 Z"/></mask><path fill="#F8FEFF" fill-rule="evenodd" stroke="#D0E3D6" stroke-linecap="round" stroke-linejoin="round" stroke-miterlimit="1.5" stroke-opacity="100" stroke-width="39.999" d="M 784.618 1150.239 C 784.618 1127.644 766.273 1109.3 743.678 1109.3 L 661.798 1109.3 C 639.203 1109.3 620.858 1127.644 620.858 1150.239 L 620.858 1232.12 C 620.858 1254.715 639.203 1273.06 661.798 1273.06 L 743.678 1273.06 C 766.273 1273.06 784.618 1254.715 784.618 1232.12 L 784.618 1150.239 Z" mask="url(#_mask_Fi2RoO8cNSQiBhBKqEjqhPQDYo1Lw2GF)" vector-effect="non-scaling-stroke"/><path fill="#F8FEFF" fill-rule="evenodd" d="M 784.618 1150.239 C 784.618 1127.644 766.273 1109.3 743.678 1109.3 L 661.798 1109.3 C 639.203 1109.3 620.858 1127.644 620.858 1150.239 L 620.858 1232.12 C 620.858 1254.715 639.203 1273.06 661.798 1273.06 L 743.678 1273.06 C 766.273 1273.06 784.618 1254.715 784.618 1232.12 L 784.618 1150.239 Z"/></g><g><mask id="_mask_qrtWRwg1jNI0niN5Lly315coqgxr7LFm" width="400%" height="400%" x="-200%" y="-200%"><rect width="400%" height="400%" x="-200%" y="-200%" style="fill:#fff"/><path fill="#000" fill-rule="evenodd" stroke="none" d="M 784.618 1356.878 C 784.618 1334.283 766.273 1315.939 743.678 1315.939 L 661.798 1315.939 C 639.203 1315.939 620.858 1334.283 620.858 1356.878 L 620.858 1438.759 C 620.858 1461.354 639.203 1479.699 661.798 1479.699 L 743.678 1479.699 C 766.273 1479.699 784.618 1461.354 784.618 1438.759 L 784.618 1356.878 Z"/></mask><path fill="#F8FEFF" fill-rule="evenodd" stroke="#D0E3D6" stroke-linecap="round" stroke-linejoin="round" stroke-miterlimit="1.5" stroke-opacity="100" stroke-width="39.999" d="M 784.618 1356.878 C 784.618 1334.283 766.273 1315.939 743.678 1315.939 L 661.798 1315.939 C 639.203 1315.939 620.858 1334.283 620.858 1356.878 L 620.858 1438.759 C 620.858 1461.354 639.203 1479.699 661.798 1479.699 L 743.678 1479.699 C 766.273 1479.699 784.618 1461.354 784.618 1438.759 L 784.618 1356.878 Z" mask="url(#_mask_qrtWRwg1jNI0niN5Lly315coqgxr7LFm)" vector-effect="non-scaling-stroke"/><path fill="#F8FEFF" fill-rule="evenodd" d="M 784.618 1356.878 C 784.618 1334.283 766.273 1315.939 743.678 1315.939 L 661.798 1315.939 C 639.203 1315.939 620.858 1334.283 620.858 1356.878 L 620.858 1438.759 C 620.858 1461.354 639.203 1479.699 661.798 1479.699 L 743.678 1479.699 C 766.273 1479.699 784.618 1461.354 784.618 1438.759 L 784.618 1356.878 Z"/></g><g><mask id="_mask_WdZw4ZzK9JyfLd1vHPZx7YQUgtZHh3gu" width="400%" height="400%" x="-200%" y="-200%"><rect width="400%" height="400%" x="-200%" y="-200%" style="fill:#fff"/><path fill="#000" fill-rule="evenodd" stroke="none" d="M 579.301 1356.878 C 579.301 1334.283 560.956 1315.939 538.361 1315.939 L 456.481 1315.939 C 433.886 1315.939 415.541 1334.283 415.541 1356.878 L 415.541 1438.759 C 415.541 1461.354 433.886 1479.699 456.481 1479.699 L 538.361 1479.699 C 560.956 1479.699 579.301 1461.354 579.301 1438.759 L 579.301 1356.878 Z"/></mask><path fill="#F8FEFF" fill-rule="evenodd" stroke="#D0E3D6" stroke-linecap="round" stroke-linejoin="round" stroke-miterlimit="1.5" stroke-opacity="100" stroke-width="39.999" d="M 579.301 1356.878 C 579.301 1334.283 560.956 1315.939 538.361 1315.939 L 456.481 1315.939 C 433.886 1315.939 415.541 1334.283 415.541 1356.878 L 415.541 1438.759 C 415.541 1461.354 433.886 1479.699 456.481 1479.699 L 538.361 1479.699 C 560.956 1479.699 579.301 1461.354 579.301 1438.759 L 579.301 1356.878 Z" mask="url(#_mask_WdZw4ZzK9JyfLd1vHPZx7YQUgtZHh3gu)" vector-effect="non-scaling-stroke"/><path fill="#F8FEFF" fill-rule="evenodd" d="M 579.301 1356.878 C 579.301 1334.283 560.956 1315.939 538.361 1315.939 L 456.481 1315.939 C 433.886 1315.939 415.541 1334.283 415.541 1356.878 L 415.541 1438.759 C 415.541 1461.354 433.886 1479.699 456.481 1479.699 L 538.361 1479.699 C 560.956 1479.699 579.301 1461.354 579.301 1438.759 L 579.301 1356.878 Z"/></g><g><path fill="#0177EA" d="M 517.76 1225.816 C 515.893 1225.816 514.42 1225.03 513.339 1223.556 L 490.641 1193.686 L 499.583 1184.548 L 523.066 1215.597 C 523.95 1216.874 524.442 1218.152 524.442 1219.625 C 524.442 1221.492 523.754 1222.966 522.378 1224.047 C 521.003 1225.226 519.431 1225.816 517.76 1225.816 Z M 518.939 1156.545 C 520.511 1156.545 521.789 1157.134 522.87 1158.412 C 523.852 1159.689 524.343 1161.065 524.343 1162.342 C 524.343 1163.717 523.754 1164.995 522.575 1166.174 L 481.405 1205.575 L 480.914 1191.524 L 514.125 1158.805 C 515.599 1157.331 517.269 1156.545 518.939 1156.545 Z M 476.493 1225.816 C 474.626 1225.816 473.152 1225.226 472.071 1224.047 C 470.99 1222.966 470.401 1221.492 470.401 1219.822 L 470.401 1163.03 C 470.401 1161.359 470.99 1159.885 472.169 1158.706 C 473.348 1157.626 474.822 1157.036 476.689 1157.036 C 478.556 1157.036 480.03 1157.626 481.111 1158.706 C 482.191 1159.885 482.683 1161.359 482.683 1163.03 L 482.683 1219.822 C 482.683 1221.492 482.093 1222.966 481.012 1224.047 C 479.932 1225.226 478.359 1225.816 476.493 1225.816 Z"/></g><g><path fill="#0177EA" d="M 681.711 1157.036 L 714.627 1157.036 C 716.298 1157.036 717.771 1157.527 718.95 1158.608 C 720.031 1159.689 720.621 1161.163 720.621 1162.833 C 720.621 1164.504 720.031 1165.781 718.95 1166.763 C 717.771 1167.844 716.298 1168.336 714.627 1168.336 L 687.115 1168.336 L 688 1166.665 L 688 1185.825 L 687.214 1185.039 L 710.206 1185.039 C 711.876 1185.039 713.35 1185.53 714.529 1186.611 C 715.61 1187.692 716.199 1189.166 716.199 1190.836 C 716.199 1192.507 715.61 1193.784 714.529 1194.767 C 713.35 1195.847 711.876 1196.339 710.206 1196.339 L 687.508 1196.339 L 688 1195.553 L 688 1215.4 L 687.214 1214.516 L 714.627 1214.516 C 716.298 1214.516 717.771 1215.106 718.95 1216.186 C 720.031 1217.366 720.621 1218.741 720.621 1220.215 C 720.621 1221.885 720.031 1223.163 718.95 1224.243 C 717.771 1225.324 716.298 1225.816 714.627 1225.816 L 681.711 1225.816 C 680.041 1225.816 678.567 1225.226 677.486 1224.047 C 676.307 1222.966 675.718 1221.492 675.718 1219.822 L 675.718 1163.03 C 675.718 1161.359 676.307 1159.885 677.486 1158.706 C 678.567 1157.626 680.041 1157.036 681.711 1157.036 Z"/></g><g><path fill="#0177EA" d="M 493.687 1432.455 C 491.821 1432.455 490.347 1431.865 489.168 1430.686 C 487.989 1429.605 487.399 1428.132 487.399 1426.461 L 487.399 1369.472 L 500.172 1369.472 L 500.172 1426.461 C 500.172 1428.132 499.583 1429.605 498.404 1430.686 C 497.126 1431.865 495.554 1432.455 493.687 1432.455 Z M 471.973 1374.975 C 470.302 1374.975 468.829 1374.484 467.748 1373.403 C 466.569 1372.322 465.979 1370.946 465.979 1369.276 C 465.979 1367.606 466.569 1366.23 467.748 1365.149 C 468.829 1364.167 470.302 1363.675 471.973 1363.675 L 515.599 1363.675 C 517.269 1363.675 518.743 1364.167 519.922 1365.247 C 521.003 1366.328 521.592 1367.704 521.592 1369.374 C 521.592 1371.045 521.003 1372.42 519.922 1373.403 C 518.743 1374.484 517.269 1374.975 515.599 1374.975 L 471.973 1374.975 Z"/></g><g><mask id="_mask_vxuCGOW8L0yHsVviHzwDwhazEoR3hwZC" width="400%" height="400%" x="-200%" y="-200%"><rect width="400%" height="400%" x="-200%" y="-200%" style="fill:#fff"/><path fill="#000" fill-rule="evenodd" stroke="none" d="M 701.603 1433.416 C 692.541 1433.141 684.659 1428.914 680.335 1422.983 C 661.095 1396.588 675.025 1370.703 701.532 1382.15 L 701.528 1382.149 C 728.04 1370.702 742.038 1396.588 722.799 1422.983 C 718.47 1428.914 710.591 1433.141 701.528 1433.416"/></mask><path fill="none" fill-rule="evenodd" stroke="#0177EA" stroke-linecap="round" stroke-linejoin="round" stroke-miterlimit="1.5" stroke-opacity="100" stroke-width="26.005" d="M 701.603 1433.416 C 692.541 1433.141 684.659 1428.914 680.335 1422.983 C 661.095 1396.588 675.025 1370.703 701.532 1382.15 L 701.528 1382.149 C 728.04 1370.702 742.038 1396.588 722.799 1422.983 C 718.47 1428.914 710.591 1433.141 701.528 1433.416" mask="url(#_mask_vxuCGOW8L0yHsVviHzwDwhazEoR3hwZC)" vector-effect="non-scaling-stroke"/><path fill="none" fill-rule="evenodd" d="M 701.603 1433.416 C 692.541 1433.141 684.659 1428.914 680.335 1422.983 C 661.095 1396.588 675.025 1370.703 701.532 1382.15 L 701.528 1382.149 C 728.04 1370.702 742.038 1396.588 722.799 1422.983 C 718.47 1428.914 710.591 1433.141 701.528 1433.416"/></g><g><mask id="_mask_G97Apb4PGSafBrbLQ4ZQ4dGzgiWP5nAJ" width="400%" height="400%" x="-200%" y="-200%"><rect width="400%" height="400%" x="-200%" y="-200%" style="fill:#fff"/><path fill="#000" fill-rule="evenodd" stroke="none" d="M 701.532 1382.15 C 700.291 1374.82 698.768 1368.16 703.677 1356.982"/></mask><path fill="none" fill-rule="evenodd" stroke="#0177EA" stroke-linecap="round" stroke-linejoin="round" stroke-miterlimit="1.5" stroke-opacity="100" stroke-width="26.005" d="M 701.532 1382.15 C 700.291 1374.82 698.768 1368.16 703.677 1356.982" mask="url(#_mask_G97Apb4PGSafBrbLQ4ZQ4dGzgiWP5nAJ)" vector-effect="non-scaling-stroke"/><path fill="none" fill-rule="evenodd" d="M 701.532 1382.15 C 700.291 1374.82 698.768 1368.16 703.677 1356.982"/></g><g><path fill="#0177EA" fill-rule="evenodd" d="M 704.545 1369.528 C 707.377 1369.54 710.16 1369.697 713.258 1369.64 C 715.902 1369.591 718.607 1369.731 721.45 1369.465 C 724.011 1369.225 726.572 1368.623 729.317 1368.22 C 731.977 1367.828 734.512 1367.163 737.42 1366.939 C 739.817 1367.27 742.031 1365.595 742.359 1363.2 C 742.693 1360.806 741.016 1358.593 738.619 1358.262 C 734.774 1356.888 731.256 1355.909 727.581 1355.412 C 725.007 1355.063 722.478 1354.96 720.042 1355.232 C 716.845 1355.589 713.905 1356.511 711.089 1357.492 C 708.077 1358.541 705.489 1359.798 702.808 1360.943 C 700.438 1361.422 698.904 1363.735 699.384 1366.105 C 699.863 1368.474 702.176 1370.008 704.545 1369.528 Z"/></g><g><text transform="matrix(1,0,0,1,858.45,1205.754)" style="font-family:'Quicksand';font-weight:700;font-size:135px;font-style:normal;font-variant-ligatures:none;fill:[Object GCMYKColor];stroke:none">KALK</text><text transform="matrix(1,0,0,1,1195.41,1205.754)" style="font-family:'Quicksand';font-weight:700;font-size:135px;font-style:normal;font-variant-ligatures:none;fill:[Object GCMYKColor];stroke:none">U</text><text transform="matrix(1,0,0,1,858.45,1340.754)" style="font-family:'Quicksand';font-weight:700;font-size:135px;font-style:normal;font-variant-ligatures:none;fill:[Object GCMYKColor];stroke:none">LAČ</text><text transform="matrix(1,0,0,1,858.45,1475.755)" style="font-family:'Quicksand';font-weight:700;font-size:135px;font-style:normal;font-variant-ligatures:none;fill:[Object GCMYKColor];stroke:none">K</text><text transform="matrix(1,0,0,1,946.88,1475.755)" style="font-family:'Quicksand';font-weight:700;font-size:135px;font-style:normal;font-variant-ligatures:none;fill:[Object GCMYKColor];stroke:none">A</text></g></g></g></svg>