<svg xmlns="http://www.w3.org/2000/svg" xmlns:xlink="http://www.w3.org/1999/xlink" style="isolation:isolate" width="1440" height="1440" viewBox="395 -23.5 1080 1080"><defs><clipPath id="_clipPath_I8V3X0c2LnodAHbKkYGhYom6XrqBCYLN"><rect width="1080" height="1080" x="395" y="-23.5"/></clipPath></defs><g clip-path="url(#_clipPath_I8V3X0c2LnodAHbKkYGhYom6XrqBCYLN)"><g><rect width="1080" height="1080" x="395" y="-23.5" fill="none" transform="matrix(1,0,0,1,0,0)"/><g><path fill="#0177EA" d="M 542.703 248.019 C 534.996 248.019 528.734 245.714 523.435 240.643 C 518.137 235.572 515.728 229.578 515.728 222.202 C 515.728 214.826 518.137 208.833 523.435 204.222 C 528.734 199.612 534.996 197.307 542.703 197.307 L 738.753 197.307 C 746.46 197.307 752.723 199.612 758.021 204.222 C 763.32 209.294 765.728 215.287 765.728 222.663 C 765.728 230.039 763.32 236.033 758.021 240.643 C 752.723 245.714 746.46 248.019 738.753 248.019 L 542.703 248.019 Z M 640.006 337.918 C 630.853 337.918 623.628 335.152 617.848 329.62 C 611.586 324.087 608.695 317.172 608.695 308.413 L 608.695 128.615 C 608.695 119.856 611.586 112.94 617.848 107.408 C 624.11 101.876 631.335 99.11 640.487 99.11 C 649.64 99.11 657.347 101.876 663.127 107.408 C 668.426 112.94 671.316 119.856 671.316 128.615 L 671.316 308.413 C 671.316 317.172 668.426 324.087 662.645 329.62 C 656.865 335.152 649.158 337.918 640.006 337.918 Z"/></g><g><mask id="_mask_QdzWZar0zysGs1H5sZUuuF5KXZgolirk" width="400%" height="400%" x="-200%" y="-200%"><rect width="400%" height="400%" x="-200%" y="-200%" style="fill:#fff"/><path fill="#000" fill-rule="evenodd" stroke="none" d="M 903.28 302.375 C 903.28 267.881 875.275 239.876 840.781 239.876 L 715.78 239.876 C 681.286 239.876 653.28 267.881 653.28 302.375 L 653.28 427.375 C 653.28 461.87 681.286 489.876 715.78 489.876 L 840.781 489.876 C 875.275 489.876 903.28 461.87 903.28 427.375 L 903.28 302.375 Z"/></mask><path fill="#F8FEFF" fill-rule="evenodd" stroke="#D0E3D6" stroke-linecap="round" stroke-linejoin="round" stroke-miterlimit="1.5" stroke-opacity="100" stroke-width="59.998" d="M 903.28 302.375 C 903.28 267.881 875.275 239.876 840.781 239.876 L 715.78 239.876 C 681.286 239.876 653.28 267.881 653.28 302.375 L 653.28 427.375 C 653.28 461.87 681.286 489.876 715.78 489.876 L 840.781 489.876 C 875.275 489.876 903.28 461.87 903.28 427.375 L 903.28 302.375 Z" mask="url(#_mask_QdzWZar0zysGs1H5sZUuuF5KXZgolirk)" vector-effect="non-scaling-stroke"/><path fill="#F8FEFF" fill-rule="evenodd" d="M 903.28 302.375 C 903.28 267.881 875.275 239.876 840.781 239.876 L 715.78 239.876 C 681.286 239.876 653.28 267.881 653.28 302.375 L 653.28 427.375 C 653.28 461.87 681.286 489.876 715.78 489.876 L 840.781 489.876 C 875.275 489.876 903.28 461.87 903.28 427.375 L 903.28 302.375 Z"/></g><g><mask id="_mask_P22VfsNmTkz4Jl0djP2gk3zwHNP3l9lE" width="400%" height="400%" x="-200%" y="-200%"><rect width="400%" height="400%" x="-200%" y="-200%" style="fill:#fff"/><path fill="#000" fill-rule="evenodd" stroke="none" d="M 1292.721 302.375 C 1292.721 267.881 1264.716 239.876 1230.221 239.876 L 1105.221 239.876 C 1070.727 239.876 1042.721 267.881 1042.721 302.375 L 1042.721 427.375 C 1042.721 461.87 1070.727 489.876 1105.221 489.876 L 1230.221 489.876 C 1264.716 489.876 1292.721 461.87 1292.721 427.375 L 1292.721 302.375 Z"/></mask><path fill="#F8FEFF" fill-rule="evenodd" stroke="#D0E3D6" stroke-linecap="round" stroke-linejoin="round" stroke-miterlimit="1.5" stroke-opacity="100" stroke-width="59.998" d="M 1292.721 302.375 C 1292.721 267.881 1264.716 239.876 1230.221 239.876 L 1105.221 239.876 C 1070.727 239.876 1042.721 267.881 1042.721 302.375 L 1042.721 427.375 C 1042.721 461.87 1070.727 489.876 1105.221 489.876 L 1230.221 489.876 C 1264.716 489.876 1292.721 461.87 1292.721 427.375 L 1292.721 302.375 Z" mask="url(#_mask_P22VfsNmTkz4Jl0djP2gk3zwHNP3l9lE)" vector-effect="non-scaling-stroke"/><path fill="#F8FEFF" fill-rule="evenodd" d="M 1292.721 302.375 C 1292.721 267.881 1264.716 239.876 1230.221 239.876 L 1105.221 239.876 C 1070.727 239.876 1042.721 267.881 1042.721 302.375 L 1042.721 427.375 C 1042.721 461.87 1070.727 489.876 1105.221 489.876 L 1230.221 489.876 C 1264.716 489.876 1292.721 461.87 1292.721 427.375 L 1292.721 302.375 Z"/></g><g><mask id="_mask_tAt1kD2qVhgfWp0VvSTWhNTXs26tCq3I" width="400%" height="400%" x="-200%" y="-200%"><rect width="400%" height="400%" x="-200%" y="-200%" style="fill:#fff"/><path fill="#000" fill-rule="evenodd" stroke="none" d="M 1292.721 705.622 C 1292.721 671.127 1264.716 643.123 1230.221 643.123 L 1105.221 643.123 C 1070.727 643.123 1042.721 671.127 1042.721 705.622 L 1042.721 830.622 C 1042.721 865.117 1070.727 893.122 1105.221 893.122 L 1230.221 893.122 C 1264.716 893.122 1292.721 865.117 1292.721 830.622 L 1292.721 705.622 Z"/></mask><path fill="#F8FEFF" fill-rule="evenodd" stroke="#D0E3D6" stroke-linecap="round" stroke-linejoin="round" stroke-miterlimit="1.5" stroke-opacity="100" stroke-width="59.998" d="M 1292.721 705.622 C 1292.721 671.127 1264.716 643.123 1230.221 643.123 L 1105.221 643.123 C 1070.727 643.123 1042.721 671.127 1042.721 705.622 L 1042.721 830.622 C 1042.721 865.117 1070.727 893.122 1105.221 893.122 L 1230.221 893.122 C 1264.716 893.122 1292.721 865.117 1292.721 830.622 L 1292.721 705.622 Z" mask="url(#_mask_tAt1kD2qVhgfWp0VvSTWhNTXs26tCq3I)" vector-effect="non-scaling-stroke"/><path fill="#F8FEFF" fill-rule="evenodd" d="M 1292.721 705.622 C 1292.721 671.127 1264.716 643.123 1230.221 643.123 L 1105.221 643.123 C 1070.727 643.123 1042.721 671.127 1042.721 705.622 L 1042.721 830.622 C 1042.721 865.117 1070.727 893.122 1105.221 893.122 L 1230.221 893.122 C 1264.716 893.122 1292.721 865.117 1292.721 830.622 L 1292.721 705.622 Z"/></g><g><mask id="_mask_ZLh6dcT9OEY9AOBsk7QuNhUFCE2LlH2J" width="400%" height="400%" x="-200%" y="-200%"><rect width="400%" height="400%" x="-200%" y="-200%" style="fill:#fff"/><path fill="#000" fill-rule="evenodd" stroke="none" d="M 903.28 705.622 C 903.28 671.127 875.275 643.123 840.781 643.123 L 715.78 643.123 C 681.286 643.123 653.28 671.127 653.28 705.622 L 653.28 830.622 C 653.28 865.117 681.286 893.122 715.78 893.122 L 840.781 893.122 C 875.275 893.122 903.28 865.117 903.28 830.622 L 903.28 705.622 Z"/></mask><path fill="#F8FEFF" fill-rule="evenodd" stroke="#D0E3D6" stroke-linecap="round" stroke-linejoin="round" stroke-miterlimit="1.5" stroke-opacity="100" stroke-width="59.998" d="M 903.28 705.622 C 903.28 671.127 875.275 643.123 840.781 643.123 L 715.78 643.123 C 681.286 643.123 653.28 671.127 653.28 705.622 L 653.28 830.622 C 653.28 865.117 681.286 893.122 715.78 893.122 L 840.781 893.122 C 875.275 893.122 903.28 865.117 903.28 830.622 L 903.28 705.622 Z" mask="url(#_mask_ZLh6dcT9OEY9AOBsk7QuNhUFCE2LlH2J)" vector-effect="non-scaling-stroke"/><path fill="#F8FEFF" fill-rule="evenodd" d="M 903.28 705.622 C 903.28 671.127 875.275 643.123 840.781 643.123 L 715.78 643.123 C 681.286 643.123 653.28 671.127 653.28 705.622 L 653.28 830.622 C 653.28 865.117 681.286 893.122 715.78 893.122 L 840.781 893.122 C 875.275 893.122 903.28 865.117 903.28 830.622 L 903.28 705.622 Z"/></g><g><text transform="matrix(1,0,0,1,725.78,417.752)" style="font-family:'Quicksand';font-weight:700;font-size:150px;font-style:normal;font-variant-ligatures:none;fill:[Object GCMYKColor];stroke:none">K</text></g><g><text transform="matrix(1,0,0,1,1115.221,417.752)" style="font-family:'Quicksand';font-weight:700;font-size:150px;font-style:normal;font-variant-ligatures:none;fill:[Object GCMYKColor];stroke:none">E</text></g><g><text transform="matrix(1,0,0,1,725.78,820.998)" style="font-family:'Quicksand';font-weight:700;font-size:150px;font-style:normal;font-variant-ligatures:none;fill:[Object GCMYKColor];stroke:none">T</text></g><g><mask id="_mask_QR6f6GVp1qnGEkf3UMXBLB14efmTv5My" width="400%" height="400%" x="-200%" y="-200%"><rect width="400%" height="400%" x="-200%" y="-200%" style="fill:#fff"/><path fill="#000" fill-rule="evenodd" stroke="none" d="M 1165.993 822.466 C 1152.158 822.047 1140.126 815.594 1133.525 806.539 C 1104.153 766.243 1125.418 726.727 1165.885 744.203 L 1165.879 744.201 C 1206.352 726.725 1227.722 766.243 1198.352 806.539 C 1191.742 815.594 1179.714 822.047 1165.879 822.466"/></mask><path fill="none" fill-rule="evenodd" stroke="#0177EA" stroke-linecap="round" stroke-linejoin="round" stroke-miterlimit="1.5" stroke-opacity="100" stroke-width="40" d="M 1165.993 822.466 C 1152.158 822.047 1140.126 815.594 1133.525 806.539 C 1104.153 766.243 1125.418 726.727 1165.885 744.203 L 1165.879 744.201 C 1206.352 726.725 1227.722 766.243 1198.352 806.539 C 1191.742 815.594 1179.714 822.047 1165.879 822.466" mask="url(#_mask_QR6f6GVp1qnGEkf3UMXBLB14efmTv5My)" vector-effect="non-scaling-stroke"/><path fill="none" fill-rule="evenodd" d="M 1165.993 822.466 C 1152.158 822.047 1140.126 815.594 1133.525 806.539 C 1104.153 766.243 1125.418 726.727 1165.885 744.203 L 1165.879 744.201 C 1206.352 726.725 1227.722 766.243 1198.352 806.539 C 1191.742 815.594 1179.714 822.047 1165.879 822.466"/></g><g><mask id="_mask_c2LMd0PnhkLNk08o5HDZrjHLUvdHRSPg" width="400%" height="400%" x="-200%" y="-200%"><rect width="400%" height="400%" x="-200%" y="-200%" style="fill:#fff"/><path fill="#000" fill-rule="evenodd" stroke="none" d="M 1165.885 744.203 C 1163.99 733.013 1161.665 722.845 1169.159 705.78"/></mask><path fill="none" fill-rule="evenodd" stroke="#0177EA" stroke-linecap="round" stroke-linejoin="round" stroke-miterlimit="1.5" stroke-opacity="100" stroke-width="40" d="M 1165.885 744.203 C 1163.99 733.013 1161.665 722.845 1169.159 705.78" mask="url(#_mask_c2LMd0PnhkLNk08o5HDZrjHLUvdHRSPg)" vector-effect="non-scaling-stroke"/><path fill="none" fill-rule="evenodd" d="M 1165.885 744.203 C 1163.99 733.013 1161.665 722.845 1169.159 705.78"/></g><g><path fill="#0177EA" fill-rule="evenodd" d="M 1170.896 726.966 C 1175.318 727.253 1179.453 727.837 1184.299 727.979 C 1188.292 728.096 1192.322 728.601 1196.622 728.206 C 1200.452 727.854 1204.192 726.697 1208.262 725.9 C 1212.332 725.102 1215.932 723.664 1220.392 723.035 C 1225.182 723.697 1229.602 720.346 1230.272 715.557 C 1230.932 710.768 1227.582 706.343 1222.792 705.681 C 1216.772 703.107 1211.462 701.34 1205.622 700.285 C 1201.592 699.558 1197.642 699.297 1193.812 699.74 C 1188.802 700.319 1184.295 701.94 1179.961 703.684 C 1175.293 705.563 1171.534 707.736 1167.421 709.795 C 1162.683 710.754 1159.614 715.38 1160.573 720.118 C 1161.532 724.857 1166.158 727.925 1170.896 726.966 Z"/></g></g></g></svg>